name Walk4.mot
datacolumns 19
datarows 17
range 2.37500000 2.45500000
endheader

                time	   L_ground_force_vx	   L_ground_force_vy	   L_ground_force_vz	   L_ground_force_px	   L_ground_force_py	   L_ground_force_pz	   R_ground_force_vx	   R_ground_force_vy	   R_ground_force_vz	   R_ground_force_px	   R_ground_force_py	   R_ground_force_pz	   L_ground_torque_x	   L_ground_torque_y	   L_ground_torque_z	   R_ground_torque_x	   R_ground_torque_y	   R_ground_torque_z	
          2.37500000	         -6.91042357	         11.60427043	          0.73859074	          0.34555707	          0.00000000	          0.16624402	         -0.00000000	          0.00000000	         -0.00000000	         -0.00000000	          0.00000000	          0.00000000	          0.00000000	          0.07790637	          0.00000000	          0.00000000	          0.00000000	          0.00000000	
          2.38000000	         -1.84106636	          1.87118657	          0.20860738	          0.08278272	          0.00000000	          0.04191083	         -0.00000000	         -0.00000000	         -0.00000000	          0.00000000	          0.00000000	         -0.00000000	          0.00000000	          0.00824120	          0.00000000	          0.00000000	         -0.00000000	          0.00000000	
          2.38500000	          0.22654875	         -0.72580462	         -0.02081000	         -0.01387254	          0.00000000	         -0.00607938	          0.00000000	         -0.00000000	          0.00000000	          0.00000000	          0.00000000	         -0.00000000	          0.00000000	         -0.00610899	          0.00000000	          0.00000000	         -0.00000000	          0.00000000	
          2.39000000	          0.26357293	         -0.40742664	         -0.02849644	         -0.01288934	          0.00000000	         -0.00625975	          0.00000000	         -0.00000000	          0.00000000	          0.00000000	          0.00000000	         -0.00000000	          0.00000000	         -0.00261450	          0.00000000	          0.00000000	          0.00000000	          0.00000000	
          2.39500000	          0.04963598	         -0.03596808	         -0.00576615	         -0.00212416	          0.00000000	         -0.00110299	          0.00000000	          0.00000000	         -0.00000000	         -0.00000000	          0.00000000	          0.00000000	          0.00000000	         -0.00007331	          0.00000000	          0.00000000	          0.00000000	          0.00000000	
          2.40000000	         -0.01462404	          0.03408274	          0.00146854	          0.00080052	          0.00000000	          0.00036867	         -0.00000000	          0.00000000	         -0.00000000	         -0.00000000	          0.00000000	          0.00000000	          0.00000000	          0.00026306	          0.00000000	          0.00000000	          0.00000000	          0.00000000	
          2.40500000	         -0.00950411	          0.01350034	          0.00103923	          0.00045592	          0.00000000	          0.00022350	         -0.00000000	          0.00000000	         -0.00000000	         -0.00000000	          0.00000000	          0.00000000	          0.00000000	          0.00008203	          0.00000000	          0.00000000	         -0.00000000	          0.00000000	
          2.41000000	         -0.00108937	          0.00010315	          0.00013328	          0.00004151	          0.00000000	          0.00002293	          0.00000000	         -0.00000000	          0.00000000	          0.00000000	          0.00000000	         -0.00000000	          0.00000000	         -0.00000545	          0.00000000	          0.00000000	         -0.00000000	          0.00000000	
          2.41500000	          0.00072456	         -0.00143591	         -0.00007524	         -0.00003778	          0.00000000	         -0.00001780	          0.00000000	         -0.00000000	          0.00000000	          0.00000000	          0.00000000	         -0.00000000	          0.00000000	         -0.00001044	          0.00000000	          0.00000000	         -0.00000000	          0.00000000	
          2.42000000	          0.00032224	         -0.00041553	         -0.00003565	         -0.00001514	          0.00000000	         -0.00000750	          0.00000000	          0.00000000	          0.00000000	         -0.00000000	          0.00000000	         -0.00000000	          0.00000000	         -0.00000235	          0.00000000	          0.00000000	          0.00000000	          0.00000000	
          2.42500000	          0.00001211	          0.00003881	         -0.00000187	         -0.00000016	          0.00000000	         -0.00000018	         -0.00000000	          0.00000000	         -0.00000000	         -0.00000000	          0.00000000	          0.00000000	          0.00000000	          0.00000047	          0.00000000	          0.00000000	          0.00000000	          0.00000000	
          2.43000000	         -0.00003156	          0.00005602	          0.00000334	          0.00000160	          0.00000000	          0.00000076	         -0.00000000	          0.00000000	         -0.00000000	         -0.00000000	          0.00000000	          0.00000000	          0.00000000	          0.00000039	          0.00000000	          0.00000000	          0.00000000	          0.00000000	
          2.43500000	         -0.00001020	          0.00001156	          0.00000114	          0.00000047	          0.00000000	          0.00000023	         -0.00000000	         -0.00000000	         -0.00000000	          0.00000000	          0.00000000	         -0.00000000	          0.00000000	          0.00000006	          0.00000000	          0.00000000	         -0.00000000	          0.00000000	
          2.44000000	          0.00000055	         -0.00000282	         -0.00000004	         -0.00000004	          0.00000000	         -0.00000002	          0.00000000	         -0.00000000	          0.00000000	          0.00000000	          0.00000000	         -0.00000000	          0.00000000	         -0.00000003	          0.00000000	          0.00000000	         -0.00000000	          0.00000000	
          2.44500000	          0.00000126	         -0.00000205	         -0.00000014	         -0.00000006	          0.00000000	         -0.00000003	          0.00000000	         -0.00000000	          0.00000000	          0.00000000	          0.00000000	         -0.00000000	          0.00000000	         -0.00000001	          0.00000000	          0.00000000	          0.00000000	          0.00000000	
          2.45000000	          0.00000030	         -0.00000027	         -0.00000003	         -0.00000001	          0.00000000	         -0.00000001	          0.00000000	          0.00000000	          0.00000000	         -0.00000000	          0.00000000	          0.00000000	          0.00000000	         -0.00000000	          0.00000000	          0.00000000	          0.00000000	          0.00000000	
          2.45500000	         -0.00000005	          0.00000015	          0.00000001	          0.00000000	          0.00000000	          0.00000000	         -0.00000000	          0.00000000	         -0.00000000	         -0.00000000	          0.00000000	          0.00000000	          0.00000000	          0.00000000	          0.00000000	          0.00000000	          0.00000000	          0.00000000	
